<svg width="36" height="36" viewBox="0 0 36 36" fill="none" xmlns="http://www.w3.org/2000/svg">
<path d="M9.95241 0.229402C9.64163 -0.0708181 9.1463 -0.0621628 8.84608 0.24862C8.55327 0.551847 8.55327 1.03251 8.84608 1.33566L25.5049 17.996L8.84454 34.6548C8.53376 34.955 8.52517 35.4503 8.82532 35.7611C9.12554 36.0719 9.6208 36.0805 9.93165 35.7803C9.93818 35.774 9.94456 35.7677 9.95087 35.7611L27.1636 18.5484C27.469 18.2429 27.469 17.7476 27.1636 17.4421L9.95241 0.229402Z" fill="#424242"/>
<path d="M9.3985 35.9912C8.9664 35.992 8.61549 35.6423 8.61469 35.2102C8.61432 35.0019 8.69706 34.802 8.84456 34.6549L25.5049 17.9961L8.84456 1.33733C8.53862 1.03139 8.53862 0.535397 8.84456 0.229456C9.15051 -0.0764853 9.6465 -0.0764853 9.95244 0.229456L27.1652 17.4422C27.4706 17.7477 27.4706 18.243 27.1652 18.5485L9.95244 35.7612C9.80574 35.9084 9.60637 35.9912 9.3985 35.9912Z" fill="#424242"/>
</svg>
